<mxfile host="app.diagrams.net" agent="Mozilla/5.0 (Macintosh; Intel Mac OS X 10_15_7) AppleWebKit/537.36 (KHTML, like Gecko) Chrome/131.0.0.0 Safari/537.36" version="25.0.3">
  <diagram name="Page-1" id="jrc66KedYIz5Gp7OFV4F">
    <mxGraphModel dx="1687" dy="924" grid="1" gridSize="10" guides="1" tooltips="1" connect="1" arrows="1" fold="1" page="1" pageScale="1" pageWidth="827" pageHeight="1169" math="0" shadow="0">
      <root>
        <mxCell id="0" />
        <mxCell id="1" parent="0" />
        <mxCell id="CKIJ8i795fiiPhjMI_jK-25" style="edgeStyle=orthogonalEdgeStyle;rounded=0;orthogonalLoop=1;jettySize=auto;html=1;" edge="1" parent="1" source="CKIJ8i795fiiPhjMI_jK-16" target="CKIJ8i795fiiPhjMI_jK-24">
          <mxGeometry relative="1" as="geometry" />
        </mxCell>
        <mxCell id="CKIJ8i795fiiPhjMI_jK-16" value="" style="rounded=0;whiteSpace=wrap;html=1;fillColor=#dae8fc;strokeColor=#6c8ebf;" vertex="1" parent="1">
          <mxGeometry x="40" y="340" width="780" height="270" as="geometry" />
        </mxCell>
        <mxCell id="CKIJ8i795fiiPhjMI_jK-1" value="scroll-eth fronent" style="rounded=0;whiteSpace=wrap;html=1;" vertex="1" parent="1">
          <mxGeometry x="298.13" y="390" width="143.75" height="40" as="geometry" />
        </mxCell>
        <mxCell id="CKIJ8i795fiiPhjMI_jK-3" style="edgeStyle=orthogonalEdgeStyle;rounded=0;orthogonalLoop=1;jettySize=auto;html=1;" edge="1" parent="1" source="CKIJ8i795fiiPhjMI_jK-2">
          <mxGeometry relative="1" as="geometry">
            <mxPoint x="370" y="340" as="targetPoint" />
          </mxGeometry>
        </mxCell>
        <mxCell id="CKIJ8i795fiiPhjMI_jK-2" value="Actor" style="shape=umlActor;verticalLabelPosition=bottom;verticalAlign=top;html=1;outlineConnect=0;" vertex="1" parent="1">
          <mxGeometry x="355.01" y="220" width="30" height="60" as="geometry" />
        </mxCell>
        <mxCell id="CKIJ8i795fiiPhjMI_jK-15" style="edgeStyle=orthogonalEdgeStyle;rounded=0;orthogonalLoop=1;jettySize=auto;html=1;" edge="1" parent="1" source="CKIJ8i795fiiPhjMI_jK-7" target="CKIJ8i795fiiPhjMI_jK-13">
          <mxGeometry relative="1" as="geometry" />
        </mxCell>
        <mxCell id="CKIJ8i795fiiPhjMI_jK-7" value="DB" style="shape=cylinder3;whiteSpace=wrap;html=1;boundedLbl=1;backgroundOutline=1;size=15;" vertex="1" parent="1">
          <mxGeometry x="680" y="370" width="60" height="80" as="geometry" />
        </mxCell>
        <mxCell id="CKIJ8i795fiiPhjMI_jK-9" value="&lt;h1 style=&quot;margin-top: 0px;&quot;&gt;&lt;span style=&quot;font-weight: normal;&quot;&gt;&lt;font style=&quot;font-size: 14px;&quot;&gt;&amp;nbsp;DBï¼šsame with geth/reth db&lt;br&gt;&amp;nbsp;use pg/msql to support&amp;nbsp;concurrence&lt;/font&gt;&lt;/span&gt;&lt;/h1&gt;" style="text;html=1;whiteSpace=wrap;overflow=hidden;rounded=0;" vertex="1" parent="1">
          <mxGeometry x="570" y="450" width="240" height="90" as="geometry" />
        </mxCell>
        <mxCell id="CKIJ8i795fiiPhjMI_jK-10" value="&lt;h1 style=&quot;margin-top: 0px;&quot;&gt;&lt;span style=&quot;font-size: 14px; font-weight: 400;&quot;&gt;frontent support: p2p/api&lt;br&gt;support all the protocol of eth&lt;/span&gt;&lt;/h1&gt;" style="text;html=1;whiteSpace=wrap;overflow=hidden;rounded=0;" vertex="1" parent="1">
          <mxGeometry x="58.13" y="380" width="201.87" height="90" as="geometry" />
        </mxCell>
        <mxCell id="CKIJ8i795fiiPhjMI_jK-14" style="edgeStyle=orthogonalEdgeStyle;rounded=0;orthogonalLoop=1;jettySize=auto;html=1;entryX=1;entryY=0.5;entryDx=0;entryDy=0;" edge="1" parent="1" source="CKIJ8i795fiiPhjMI_jK-13" target="CKIJ8i795fiiPhjMI_jK-1">
          <mxGeometry relative="1" as="geometry" />
        </mxCell>
        <mxCell id="CKIJ8i795fiiPhjMI_jK-13" value="redis" style="shape=dataStorage;whiteSpace=wrap;html=1;fixedSize=1;" vertex="1" parent="1">
          <mxGeometry x="510" y="380" width="90" height="60" as="geometry" />
        </mxCell>
        <mxCell id="CKIJ8i795fiiPhjMI_jK-18" value="Front layer have the&amp;nbsp;Horizontal scaling capacity, so it can easily reach any TPS&lt;br&gt;Because use pg/myql as storage, so there is no limit on world state concurrence" style="text;html=1;align=center;verticalAlign=middle;whiteSpace=wrap;rounded=0;" vertex="1" parent="1">
          <mxGeometry x="160.01" y="555" width="490" height="30" as="geometry" />
        </mxCell>
        <mxCell id="CKIJ8i795fiiPhjMI_jK-19" value="scroll-eth fronent" style="rounded=0;whiteSpace=wrap;html=1;" vertex="1" parent="1">
          <mxGeometry x="308.13" y="405" width="143.75" height="40" as="geometry" />
        </mxCell>
        <mxCell id="CKIJ8i795fiiPhjMI_jK-20" value="scroll-eth fronent" style="rounded=0;whiteSpace=wrap;html=1;" vertex="1" parent="1">
          <mxGeometry x="318.13" y="420" width="143.75" height="40" as="geometry" />
        </mxCell>
        <mxCell id="CKIJ8i795fiiPhjMI_jK-21" value="scroll-eth fronent" style="rounded=0;whiteSpace=wrap;html=1;" vertex="1" parent="1">
          <mxGeometry x="333.13" y="430" width="143.75" height="40" as="geometry" />
        </mxCell>
        <mxCell id="CKIJ8i795fiiPhjMI_jK-29" style="edgeStyle=orthogonalEdgeStyle;rounded=0;orthogonalLoop=1;jettySize=auto;html=1;entryX=0.5;entryY=0;entryDx=0;entryDy=0;" edge="1" parent="1" source="CKIJ8i795fiiPhjMI_jK-24" target="CKIJ8i795fiiPhjMI_jK-28">
          <mxGeometry relative="1" as="geometry" />
        </mxCell>
        <mxCell id="CKIJ8i795fiiPhjMI_jK-24" value="MQ" style="shape=cylinder3;whiteSpace=wrap;html=1;boundedLbl=1;backgroundOutline=1;size=15;" vertex="1" parent="1">
          <mxGeometry x="378.75" y="660" width="102.5" height="70" as="geometry" />
        </mxCell>
        <mxCell id="CKIJ8i795fiiPhjMI_jK-28" value="" style="rounded=0;whiteSpace=wrap;html=1;fillColor=#dae8fc;strokeColor=#6c8ebf;" vertex="1" parent="1">
          <mxGeometry x="40" y="780" width="780" height="220" as="geometry" />
        </mxCell>
        <mxCell id="CKIJ8i795fiiPhjMI_jK-30" value="Scroll-block-chain" style="rounded=0;whiteSpace=wrap;html=1;" vertex="1" parent="1">
          <mxGeometry x="140" y="840" width="143.75" height="40" as="geometry" />
        </mxCell>
        <mxCell id="CKIJ8i795fiiPhjMI_jK-31" value="Scroll-block-chain" style="rounded=0;whiteSpace=wrap;html=1;" vertex="1" parent="1">
          <mxGeometry x="318.13" y="840" width="143.75" height="40" as="geometry" />
        </mxCell>
        <mxCell id="CKIJ8i795fiiPhjMI_jK-32" value="Scroll-block-chain" style="rounded=0;whiteSpace=wrap;html=1;" vertex="1" parent="1">
          <mxGeometry x="510" y="840" width="143.75" height="40" as="geometry" />
        </mxCell>
        <mxCell id="CKIJ8i795fiiPhjMI_jK-33" value="BlockChain layer:&amp;nbsp;&lt;div&gt;&lt;ul&gt;&lt;li&gt;Asynchronous consumption module&amp;nbsp;&lt;br&gt;&lt;/li&gt;&lt;li&gt;World state generation&lt;/li&gt;&lt;li&gt;Broadcast&lt;/li&gt;&lt;/ul&gt;&lt;/div&gt;" style="text;html=1;align=left;verticalAlign=middle;whiteSpace=wrap;rounded=0;" vertex="1" parent="1">
          <mxGeometry x="140" y="910" width="510" height="70" as="geometry" />
        </mxCell>
      </root>
    </mxGraphModel>
  </diagram>
</mxfile>
